SplineFontDB: 3.2
FontName: SquarePlusMinusPipe
FullName: SquarePlusMinusPipe
FamilyName: SquarePlusMinusPipe
Weight: Book
Copyright: 
Version: 
ItalicAngle: 0
UnderlinePosition: 0
UnderlineWidth: 0
Ascent: 819
Descent: 205
InvalidEm: 0
sfntRevision: 0x00010000
LayerCount: 2
Layer: 0 1 "Back" 1
Layer: 1 1 "Fore" 0
HasVMetrics: 1
XUID: [1021 722 912653689 6842092]
FSType: 8
OS2Version: 1
OS2_WeightWidthSlopeOnly: 0
OS2_UseTypoMetrics: 1
CreationTime: 1505014962
ModificationTime: 1759886130
PfmFamily: 17
TTFWeight: 400
TTFWidth: 5
LineGap: 92
VLineGap: 92
Panose: 2 0 5 3 0 0 0 0 0 0
OS2TypoAscent: 819
OS2TypoAOffset: 0
OS2TypoDescent: -205
OS2TypoDOffset: 0
OS2TypoLinegap: 92
OS2WinAscent: 1024
OS2WinAOffset: 0
OS2WinDescent: 0
OS2WinDOffset: 0
HheadAscent: 1024
HheadAOffset: 0
HheadDescent: 0
HheadDOffset: 0
OS2SubXSize: 665
OS2SubYSize: 716
OS2SubXOff: 0
OS2SubYOff: 143
OS2SupXSize: 665
OS2SupYSize: 716
OS2SupXOff: 0
OS2SupYOff: 491
OS2StrikeYSize: 51
OS2StrikeYPos: 265
OS2Vendor: 'PfEd'
OS2CodePages: 00000001.00000000
OS2UnicodeRanges: 00000001.00000000.00000000.00000000
MarkAttachClasses: 1
DEI: 91125
ShortTable: maxp 16
  1
  0
  94
  20
  3
  0
  0
  2
  0
  1
  1
  0
  64
  0
  0
  0
EndShort
LangName: 1033 "" "" "Regular"
GaspTable: 1 65535 2 0
Encoding: Custom
UnicodeInterp: none
NameList: Adobe Glyph List
DisplaySize: -24
AntiAlias: 1
FitToEm: 1
WinInfo: 0 16 8
BeginPrivate: 0
EndPrivate
BeginChars: 65538 97

StartChar: .notdef
Encoding: 0 -1 0
AltUni2: 000000.ffffffff.0
Width: 1024
VWidth: 90
Flags: W
LayerCount: 2
Fore
SplineSet
12 0 m 1,0,-1
 12 1024 l 1,1,-1
 1012 1024 l 1,2,-1
 1012 0 l 1,3,-1
 12 0 l 1,0,-1
EndSplineSet
Validated: 1
EndChar

StartChar: A
Encoding: 65 65 3
Width: 1024
VWidth: 90
Flags: W
LayerCount: 2
Fore
SplineSet
332 720 m 1,0,-1
 692 720 l 1,1,-1
 692 0 l 1,2,-1
 572 0 l 1,3,-1
 572 360 l 1,4,-1
 452 360 l 1,5,-1
 452 0 l 1,6,-1
 332 0 l 1,7,-1
 332 720 l 1,0,-1
452 600 m 1,8,-1
 452 480 l 1,9,-1
 572 480 l 1,10,-1
 572 600 l 1,11,-1
 452 600 l 1,8,-1
EndSplineSet
Validated: 1
EndChar

StartChar: B
Encoding: 66 66 4
Width: 1024
VWidth: 90
Flags: W
LayerCount: 2
Fore
SplineSet
332 720 m 1,0,-1
 692 720 l 1,1,-1
 692 0 l 1,2,-1
 332 0 l 1,3,-1
 332 720 l 1,0,-1
452 591 m 1,4,-1
 452 471 l 1,5,-1
 572 471 l 1,6,-1
 572 591 l 1,7,-1
 452 591 l 1,4,-1
452 360 m 1,8,-1
 452 120 l 1,9,-1
 572 120 l 1,10,-1
 572 360 l 1,11,-1
 452 360 l 1,8,-1
EndSplineSet
Validated: 1
EndChar

StartChar: C
Encoding: 67 67 5
Width: 1024
VWidth: 90
Flags: W
LayerCount: 2
Fore
SplineSet
332 720 m 1,0,-1
 692 720 l 1,1,-1
 692 600 l 1,2,-1
 452 600 l 1,3,-1
 452 120 l 1,4,-1
 692 120 l 1,5,-1
 692 0 l 1,6,-1
 332 0 l 1,7,-1
 332 720 l 1,0,-1
EndSplineSet
Validated: 1
EndChar

StartChar: D
Encoding: 68 68 6
Width: 1024
VWidth: 90
Flags: W
LayerCount: 2
Fore
SplineSet
332 720 m 1,0,-1
 572 720 l 1,1,-1
 572 600 l 1,2,-1
 452 600 l 1,3,-1
 452 120 l 1,4,-1
 572 120 l 1,5,-1
 572 0 l 1,6,-1
 332 0 l 1,7,-1
 332 720 l 1,0,-1
572 600 m 1,8,-1
 692 600 l 1,9,-1
 692 120 l 1,10,-1
 572 120 l 1,11,-1
 572 600 l 1,8,-1
EndSplineSet
Validated: 5
EndChar

StartChar: E
Encoding: 69 69 7
Width: 1024
VWidth: 90
Flags: W
LayerCount: 2
Fore
SplineSet
332 720 m 5,0,-1
 692 720 l 5,1,-1
 692 600 l 5,2,-1
 452 600 l 5,3,-1
 452 480 l 5,4,-1
 692 480 l 5,5,-1
 692 360 l 5,6,-1
 452 360 l 5,7,-1
 452 120 l 1,8,-1
 692 120 l 1,9,-1
 692 0 l 1,10,-1
 332 0 l 1,11,-1
 332 720 l 5,0,-1
EndSplineSet
Validated: 1
EndChar

StartChar: F
Encoding: 70 70 8
Width: 1024
VWidth: 90
Flags: W
LayerCount: 2
Fore
SplineSet
332 720 m 5,0,-1
 692 720 l 5,1,-1
 692 600 l 5,2,-1
 452 600 l 5,3,-1
 452 480 l 5,4,-1
 692 480 l 5,5,-1
 692 360 l 5,6,-1
 452 360 l 5,7,-1
 452 0 l 1,8,-1
 332 0 l 1,9,-1
 332 720 l 5,0,-1
EndSplineSet
Validated: 1
EndChar

StartChar: G
Encoding: 71 71 9
Width: 1024
VWidth: 90
Flags: W
LayerCount: 2
Fore
SplineSet
332 720 m 1,0,-1
 692 720 l 1,1,-1
 692 600 l 1,2,-1
 452 600 l 1,3,-1
 452 120 l 1,4,-1
 572 120 l 1,5,-1
 572 480 l 1,6,-1
 692 480 l 1,7,-1
 692 0 l 1,8,-1
 332 0 l 1,9,-1
 332 720 l 1,0,-1
EndSplineSet
Validated: 1
EndChar

StartChar: H
Encoding: 72 72 10
Width: 1024
VWidth: 90
Flags: W
LayerCount: 2
Fore
SplineSet
332 720 m 5,0,-1
 452 720 l 5,1,-1
 452 480 l 5,2,-1
 572 480 l 5,3,-1
 572 720 l 5,4,-1
 692 720 l 5,5,-1
 692 0 l 1,6,-1
 572 0 l 1,7,-1
 572 360 l 5,8,-1
 452 360 l 5,9,-1
 452 0 l 1,10,-1
 332 0 l 1,11,-1
 332 720 l 5,0,-1
EndSplineSet
Validated: 1
EndChar

StartChar: I
Encoding: 73 73 11
Width: 1024
VWidth: 90
Flags: W
LayerCount: 2
Fore
SplineSet
332 720 m 5,0,-1
 692 720 l 5,1,-1
 692 600 l 5,2,-1
 572 600 l 5,3,-1
 572 120 l 1,4,-1
 692 120 l 1,5,-1
 692 0 l 1,6,-1
 332 0 l 1,7,-1
 332 120 l 1,8,-1
 452 120 l 1,9,-1
 452 600 l 5,10,-1
 332 600 l 5,11,-1
 332 720 l 5,0,-1
EndSplineSet
Validated: 1
EndChar

StartChar: J
Encoding: 74 74 12
Width: 1024
VWidth: 90
Flags: W
LayerCount: 2
Fore
SplineSet
332 480 m 1,0,-1
 452 480 l 1,1,-1
 452 120 l 1,2,-1
 572 120 l 1,3,-1
 572 720 l 1,4,-1
 692 720 l 1,5,-1
 692 0 l 1,6,-1
 332 0 l 1,7,-1
 332 480 l 1,0,-1
EndSplineSet
Validated: 1
EndChar

StartChar: K
Encoding: 75 75 13
Width: 1024
VWidth: 90
Flags: W
LayerCount: 2
Fore
SplineSet
332 720 m 1,0,-1
 452 720 l 1,1,-1
 452 600 l 1,2,-1
 572 600 l 1,3,-1
 572 720 l 1,4,-1
 692 720 l 1,5,-1
 692 600 l 1,6,-1
 572 600 l 1,7,-1
 572 360 l 1,8,-1
 692 360 l 1,9,-1
 692 0 l 1,10,-1
 572 0 l 1,11,-1
 572 360 l 1,12,-1
 452 360 l 1,13,-1
 452 0 l 1,14,-1
 332 0 l 1,15,-1
 332 720 l 1,0,-1
EndSplineSet
Validated: 5
EndChar

StartChar: L
Encoding: 76 76 14
Width: 1024
VWidth: 90
Flags: W
LayerCount: 2
Fore
SplineSet
332 720 m 5,0,-1
 452 720 l 5,1,-1
 452 120 l 1,2,-1
 692 120 l 1,3,-1
 692 0 l 1,4,-1
 332 0 l 1,5,-1
 332 720 l 5,0,-1
EndSplineSet
Validated: 1
EndChar

StartChar: M
Encoding: 77 77 15
Width: 1024
VWidth: 90
Flags: W
LayerCount: 2
Fore
SplineSet
332 720 m 5,0,-1
 452 720 l 5,1,-1
 452 600 l 5,2,-1
 572 600 l 5,3,-1
 572 720 l 5,4,-1
 692 720 l 5,5,-1
 692 0 l 1,6,-1
 572 0 l 1,7,-1
 572 480 l 5,8,-1
 452 480 l 5,9,-1
 452 0 l 1,10,-1
 332 0 l 1,11,-1
 332 720 l 5,0,-1
EndSplineSet
Validated: 1
EndChar

StartChar: N
Encoding: 78 78 16
Width: 1024
VWidth: 90
Flags: W
LayerCount: 2
Fore
SplineSet
332 720 m 5,0,-1
 692 720 l 5,1,-1
 692 0 l 1,2,-1
 572 0 l 1,3,-1
 572 600 l 5,4,-1
 452 600 l 5,5,-1
 452 0 l 1,6,-1
 332 0 l 1,7,-1
 332 720 l 5,0,-1
EndSplineSet
Validated: 1
EndChar

StartChar: O
Encoding: 79 79 17
Width: 1024
VWidth: 90
Flags: W
LayerCount: 2
Fore
SplineSet
332 720 m 5,0,-1
 692 720 l 5,1,-1
 692 0 l 1,2,-1
 332 0 l 1,3,-1
 332 720 l 5,0,-1
452 600 m 5,4,-1
 452 120 l 1,5,-1
 572 120 l 1,6,-1
 572 600 l 5,7,-1
 452 600 l 5,4,-1
EndSplineSet
Validated: 1
EndChar

StartChar: P
Encoding: 80 80 18
Width: 1024
VWidth: 90
Flags: W
LayerCount: 2
Fore
SplineSet
332 720 m 5,0,-1
 692 720 l 5,1,-1
 692 360 l 5,2,-1
 452 360 l 5,3,-1
 452 0 l 1,4,-1
 332 0 l 1,5,-1
 332 720 l 5,0,-1
452 600 m 5,6,-1
 452 480 l 5,7,-1
 572 480 l 5,8,-1
 572 600 l 5,9,-1
 452 600 l 5,6,-1
EndSplineSet
Validated: 1
EndChar

StartChar: Q
Encoding: 81 81 19
Width: 1024
VWidth: 90
Flags: W
LayerCount: 2
Fore
SplineSet
332 720 m 5,0,-1
 692 720 l 5,1,-1
 692 120 l 1,2,-1
 572 120 l 1,3,-1
 572 0 l 1,4,-1
 452 0 l 1,5,-1
 452 120 l 1,6,-1
 332 120 l 1,7,-1
 332 720 l 5,0,-1
452 600 m 5,8,-1
 452 240 l 1,9,-1
 572 240 l 1,10,-1
 572 600 l 5,11,-1
 452 600 l 5,8,-1
EndSplineSet
Validated: 1
EndChar

StartChar: R
Encoding: 82 82 20
Width: 1024
VWidth: 90
Flags: W
LayerCount: 2
Fore
SplineSet
332 720 m 5,0,-1
 692 720 l 5,1,-1
 692 480 l 5,2,-1
 572 480 l 5,3,-1
 572 600 l 5,4,-1
 452 600 l 5,5,-1
 452 480 l 5,6,-1
 572 480 l 5,7,-1
 572 360 l 5,8,-1
 452 360 l 5,9,-1
 452 0 l 1,10,-1
 332 0 l 1,11,-1
 332 720 l 5,0,-1
572 360 m 5,12,-1
 692 360 l 5,13,-1
 692 0 l 1,14,-1
 572 0 l 1,15,-1
 572 360 l 5,12,-1
EndSplineSet
Validated: 5
EndChar

StartChar: S
Encoding: 83 83 21
Width: 1024
VWidth: 90
Flags: W
LayerCount: 2
Fore
SplineSet
332 720 m 5,0,-1
 692 720 l 5,1,-1
 692 600 l 5,2,-1
 452 600 l 5,3,-1
 452 480 l 5,4,-1
 692 480 l 5,5,-1
 692 0 l 1,6,-1
 332 0 l 1,7,-1
 332 120 l 1,8,-1
 572 120 l 1,9,-1
 572 360 l 5,10,-1
 332 360 l 5,11,-1
 332 720 l 5,0,-1
EndSplineSet
Validated: 1
EndChar

StartChar: T
Encoding: 84 84 22
Width: 1024
VWidth: 90
Flags: W
LayerCount: 2
Fore
SplineSet
332 720 m 1,0,-1
 692 720 l 1,1,-1
 692 600 l 1,2,-1
 572 600 l 1,3,-1
 572 0 l 1,4,-1
 452 0 l 1,5,-1
 452 600 l 1,6,-1
 332 600 l 1,7,-1
 332 720 l 1,0,-1
EndSplineSet
Validated: 1
EndChar

StartChar: U
Encoding: 85 85 23
Width: 1024
VWidth: 90
Flags: W
LayerCount: 2
Fore
SplineSet
332 720 m 5,0,-1
 452 720 l 5,1,-1
 452 120 l 1,2,-1
 572 120 l 1,3,-1
 572 720 l 5,4,-1
 692 720 l 5,5,-1
 692 0 l 1,6,-1
 332 0 l 1,7,-1
 332 720 l 5,0,-1
EndSplineSet
Validated: 1
EndChar

StartChar: V
Encoding: 86 86 24
Width: 1024
VWidth: 90
Flags: W
LayerCount: 2
Fore
SplineSet
332 720 m 5,0,-1
 452 720 l 5,1,-1
 452 240 l 1,2,-1
 572 240 l 1,3,-1
 572 720 l 5,4,-1
 692 720 l 5,5,-1
 692 120 l 1,6,-1
 572 120 l 1,7,-1
 572 0 l 1,8,-1
 452 0 l 1,9,-1
 452 120 l 1,10,-1
 332 120 l 1,11,-1
 332 720 l 5,0,-1
EndSplineSet
Validated: 1
EndChar

StartChar: W
Encoding: 87 87 25
Width: 1024
VWidth: 90
Flags: W
LayerCount: 2
Fore
SplineSet
332 720 m 5,0,-1
 452 720 l 5,1,-1
 452 240 l 1,2,-1
 572 240 l 1,3,-1
 572 720 l 5,4,-1
 692 720 l 5,5,-1
 692 0 l 1,6,-1
 572 0 l 1,7,-1
 572 120 l 1,8,-1
 452 120 l 1,9,-1
 452 0 l 1,10,-1
 332 0 l 1,11,-1
 332 720 l 5,0,-1
EndSplineSet
Validated: 1
EndChar

StartChar: X
Encoding: 88 88 26
Width: 1024
VWidth: 90
Flags: W
LayerCount: 2
Fore
SplineSet
332 720 m 5,0,-1
 452 720 l 5,1,-1
 452 480 l 5,2,-1
 572 480 l 5,3,-1
 572 720 l 5,4,-1
 692 720 l 5,5,-1
 692 480 l 5,6,-1
 572 480 l 5,7,-1
 572 360 l 5,8,-1
 692 360 l 5,9,-1
 692 0 l 1,10,-1
 572 0 l 1,11,-1
 572 360 l 5,12,-1
 452 360 l 5,13,-1
 452 0 l 1,14,-1
 332 0 l 1,15,-1
 332 360 l 5,16,-1
 452 360 l 5,17,-1
 452 480 l 5,18,-1
 332 480 l 5,19,-1
 332 720 l 5,0,-1
EndSplineSet
Validated: 5
EndChar

StartChar: Y
Encoding: 89 89 27
Width: 1024
VWidth: 90
Flags: W
LayerCount: 2
Fore
SplineSet
332 720 m 5,0,-1
 452 720 l 5,1,-1
 452 480 l 5,2,-1
 572 480 l 5,3,-1
 572 720 l 5,4,-1
 692 720 l 5,5,-1
 692 360 l 5,6,-1
 572 360 l 5,7,-1
 572 0 l 1,8,-1
 452 0 l 1,9,-1
 452 360 l 5,10,-1
 332 360 l 5,11,-1
 332 720 l 5,0,-1
EndSplineSet
Validated: 1
EndChar

StartChar: Z
Encoding: 90 90 28
Width: 1024
VWidth: 90
Flags: W
LayerCount: 2
Fore
SplineSet
332 729 m 5,0,-1
 692 729 l 5,1,-1
 692 480 l 5,2,-1
 572 480 l 5,3,-1
 572 360 l 5,4,-1
 452 360 l 5,5,-1
 452 128 l 1,6,-1
 692 128 l 1,7,-1
 692 0 l 1,8,-1
 332 0 l 1,9,-1
 332 360 l 5,10,-1
 452 360 l 5,11,-1
 452 480 l 5,12,-1
 572 480 l 5,13,-1
 572 600 l 5,14,-1
 332 600 l 5,15,-1
 332 729 l 5,0,-1
EndSplineSet
Validated: 5
EndChar

StartChar: 0
Encoding: 48 48 29
Width: 1024
VWidth: 90
Flags: W
LayerCount: 2
Fore
SplineSet
332 720 m 5,0,-1
 692 720 l 5,1,-1
 692 0 l 1,2,-1
 332 0 l 1,3,-1
 332 720 l 5,0,-1
452 600 m 5,4,-1
 452 120 l 1,5,-1
 572 120 l 1,6,-1
 572 600 l 5,7,-1
 452 600 l 5,4,-1
EndSplineSet
Validated: 1
EndChar

StartChar: 1
Encoding: 49 49 30
Width: 1024
VWidth: 90
Flags: W
LayerCount: 2
Fore
SplineSet
572 720 m 5,0,-1
 572 120 l 1,1,-1
 692 120 l 1,2,-1
 692 0 l 1,3,-1
 332 0 l 1,4,-1
 332 120 l 1,5,-1
 452 120 l 1,6,-1
 452 600 l 1,7,-1
 332 600 l 1,8,-1
 332 720 l 5,9,-1
 572 720 l 5,0,-1
EndSplineSet
Validated: 1
EndChar

StartChar: 2
Encoding: 50 50 31
Width: 1024
VWidth: 90
Flags: W
LayerCount: 2
Fore
SplineSet
692 720 m 1,0,-1
 332 720 l 1,1,-1
 332 600 l 1,2,-1
 572 600 l 1,3,-1
 572 480 l 1,4,-1
 332 480 l 1,5,-1
 332 0 l 1,6,-1
 692 0 l 1,7,-1
 692 120 l 1,8,-1
 452 120 l 1,9,-1
 452 360 l 1,10,-1
 692 360 l 1,11,-1
 692 720 l 1,0,-1
EndSplineSet
Validated: 9
EndChar

StartChar: 3
Encoding: 51 51 32
Width: 1024
VWidth: 90
Flags: W
LayerCount: 2
Fore
SplineSet
692 720 m 5,0,-1
 332 720 l 5,1,-1
 332 600 l 5,2,-1
 572 600 l 5,3,-1
 572 480 l 5,4,-1
 332 480 l 5,5,-1
 332 360 l 5,6,-1
 572 360 l 5,7,-1
 572 120 l 5,8,-1
 332 120 l 5,9,-1
 332 0 l 5,10,-1
 692 0 l 5,11,-1
 692 720 l 5,0,-1
EndSplineSet
Validated: 9
EndChar

StartChar: 4
Encoding: 52 52 33
Width: 1024
VWidth: 90
Flags: W
LayerCount: 2
Fore
SplineSet
332 720 m 5,0,-1
 452 720 l 1,1,-1
 452 480 l 1,2,-1
 572 480 l 1,3,-1
 572 720 l 1,4,-1
 692 720 l 1,5,-1
 692 0 l 1,6,-1
 572 0 l 1,7,-1
 572 360 l 1,8,-1
 332 360 l 5,9,-1
 332 720 l 5,0,-1
EndSplineSet
Validated: 1
EndChar

StartChar: 5
Encoding: 53 53 34
Width: 1024
VWidth: 90
Flags: W
LayerCount: 2
Fore
SplineSet
332 720 m 5,0,-1
 692 720 l 5,1,-1
 692 600 l 5,2,-1
 452 600 l 5,3,-1
 452 480 l 5,4,-1
 692 480 l 5,5,-1
 692 0 l 1,6,-1
 332 0 l 1,7,-1
 332 120 l 1,8,-1
 572 120 l 1,9,-1
 572 360 l 5,10,-1
 332 360 l 5,11,-1
 332 720 l 5,0,-1
EndSplineSet
Validated: 1
EndChar

StartChar: 6
Encoding: 54 54 35
Width: 1024
VWidth: 90
Flags: W
LayerCount: 2
Fore
SplineSet
332 1 m 5,0,-1
 692 1 l 5,1,-1
 692 361 l 5,2,-1
 452 361 l 5,3,-1
 452 721 l 5,4,-1
 332 721 l 5,5,-1
 332 1 l 5,0,-1
452 121 m 5,6,-1
 452 241 l 5,7,-1
 572 241 l 5,8,-1
 572 121 l 5,9,-1
 452 121 l 5,6,-1
EndSplineSet
Validated: 9
EndChar

StartChar: 7
Encoding: 55 55 36
Width: 1024
VWidth: 90
Flags: W
LayerCount: 2
Fore
SplineSet
692 0 m 1,0,-1
 572 0 l 1,1,-1
 572 600 l 1,2,-1
 332 600 l 1,3,-1
 332 720 l 1,4,-1
 692 720 l 1,5,-1
 692 0 l 1,0,-1
EndSplineSet
Validated: 1
EndChar

StartChar: 8
Encoding: 56 56 37
Width: 1024
VWidth: 90
Flags: W
LayerCount: 2
Fore
SplineSet
332 720 m 1,0,-1
 692 720 l 1,1,-1
 692 0 l 1,2,-1
 332 0 l 1,3,-1
 332 720 l 1,0,-1
452 591 m 1,4,-1
 452 471 l 1,5,-1
 572 471 l 1,6,-1
 572 591 l 1,7,-1
 452 591 l 1,4,-1
452 360 m 1,8,-1
 452 120 l 1,9,-1
 572 120 l 1,10,-1
 572 360 l 1,11,-1
 452 360 l 1,8,-1
EndSplineSet
Validated: 1
EndChar

StartChar: 9
Encoding: 57 57 38
Width: 1024
VWidth: 90
Flags: W
LayerCount: 2
Fore
SplineSet
692 720 m 5,0,-1
 332 720 l 5,1,-1
 332 360 l 5,2,-1
 572 360 l 5,3,-1
 572 0 l 5,4,-1
 692 0 l 5,5,-1
 692 720 l 5,0,-1
572 600 m 5,6,-1
 572 480 l 5,7,-1
 452 480 l 5,8,-1
 452 600 l 5,9,-1
 572 600 l 5,6,-1
EndSplineSet
Validated: 9
EndChar

StartChar: -
Encoding: 45 45 39
Width: 1024
VWidth: 90
Flags: W
LayerCount: 2
Fore
SplineSet
0 360 m 1,0,-1
 1024 360 l 1,1,-1
 1024 240 l 1,2,-1
 0 240 l 1,3,-1
 0 360 l 1,0,-1
EndSplineSet
Validated: 513
EndChar

StartChar: :
Encoding: 58 58 40
Width: 1024
VWidth: 90
Flags: W
LayerCount: 2
Fore
SplineSet
452 360 m 1,0,-1
 572 360 l 1,1,-1
 572 240 l 1,2,-1
 452 240 l 1,3,-1
 452 360 l 1,0,-1
452 120 m 1,4,-1
 572 120 l 1,5,-1
 572 0 l 1,6,-1
 452 0 l 1,7,-1
 452 120 l 1,4,-1
EndSplineSet
Validated: 513
EndChar

StartChar: /
Encoding: 47 47 41
Width: 1024
VWidth: 90
Flags: W
LayerCount: 2
Fore
SplineSet
1024 720 m 1,0,-1
 100 -204 l 1,1,-1
 0 -100 l 1,2,-1
 924 820 l 5,3,-1
 1024 720 l 1,0,-1
EndSplineSet
EndChar

StartChar: a
Encoding: 97 97 42
Width: 1024
VWidth: 90
Flags: W
LayerCount: 2
Fore
SplineSet
332 600 m 1,0,-1
 692 600 l 1,1,-1
 692 0 l 1,2,-1
 572 0 l 1,3,-1
 572 240 l 1,4,-1
 452 240 l 1,5,-1
 452 0 l 1,6,-1
 332 0 l 1,7,-1
 332 600 l 1,0,-1
452 480 m 1,8,-1
 452 360 l 1,9,-1
 572 360 l 1,10,-1
 572 480 l 1,11,-1
 452 480 l 1,8,-1
EndSplineSet
Validated: 1
EndChar

StartChar: b
Encoding: 98 98 43
Width: 1024
VWidth: 90
Flags: W
LayerCount: 2
Fore
SplineSet
332 600 m 1,0,-1
 692 600 l 1,1,-1
 692 0 l 1,2,-1
 332 0 l 1,3,-1
 332 600 l 1,0,-1
452 471 m 1,4,-1
 452 351 l 1,5,-1
 572 351 l 1,6,-1
 572 471 l 1,7,-1
 452 471 l 1,4,-1
452 240 m 1,8,-1
 452 120 l 1,9,-1
 572 120 l 1,10,-1
 572 240 l 1,11,-1
 452 240 l 1,8,-1
EndSplineSet
Validated: 1
EndChar

StartChar: c
Encoding: 99 99 44
Width: 1024
VWidth: 90
Flags: W
LayerCount: 2
Fore
SplineSet
332 600 m 1,0,-1
 692 600 l 1,1,-1
 692 480 l 1,2,-1
 452 480 l 1,3,-1
 452 120 l 1,4,-1
 692 120 l 1,5,-1
 692 0 l 1,6,-1
 332 0 l 1,7,-1
 332 600 l 1,0,-1
EndSplineSet
Validated: 1
EndChar

StartChar: d
Encoding: 100 100 45
Width: 1024
VWidth: 90
Flags: W
LayerCount: 2
Fore
SplineSet
332 600 m 1,0,-1
 572 600 l 1,1,-1
 572 480 l 1,2,-1
 452 480 l 1,3,-1
 452 120 l 1,4,-1
 572 120 l 1,5,-1
 572 0 l 1,6,-1
 332 0 l 1,7,-1
 332 600 l 1,0,-1
572 480 m 1,8,-1
 692 480 l 1,9,-1
 692 120 l 1,10,-1
 572 120 l 1,11,-1
 572 480 l 1,8,-1
EndSplineSet
Validated: 5
EndChar

StartChar: e
Encoding: 101 101 46
Width: 1024
VWidth: 90
Flags: W
LayerCount: 2
Fore
SplineSet
332 600 m 1,0,-1
 692 600 l 1,1,-1
 692 480 l 1,2,-1
 452 480 l 1,3,-1
 452 360 l 1,4,-1
 692 360 l 1,5,-1
 692 240 l 1,6,-1
 452 240 l 1,7,-1
 452 120 l 1,8,-1
 692 120 l 1,9,-1
 692 0 l 1,10,-1
 332 0 l 1,11,-1
 332 600 l 1,0,-1
EndSplineSet
Validated: 1
EndChar

StartChar: f
Encoding: 102 102 47
Width: 1024
VWidth: 90
Flags: W
LayerCount: 2
Fore
SplineSet
332 600 m 1,0,-1
 692 600 l 1,1,-1
 692 480 l 1,2,-1
 452 480 l 1,3,-1
 452 360 l 1,4,-1
 692 360 l 1,5,-1
 692 240 l 1,6,-1
 452 240 l 1,7,-1
 452 0 l 1,8,-1
 332 0 l 1,9,-1
 332 600 l 1,0,-1
EndSplineSet
Validated: 1
EndChar

StartChar: g
Encoding: 103 103 48
Width: 1024
VWidth: 90
Flags: W
LayerCount: 2
Fore
SplineSet
332 600 m 1,0,-1
 692 600 l 1,1,-1
 692 480 l 1,2,-1
 452 480 l 1,3,-1
 452 120 l 1,4,-1
 572 120 l 1,5,-1
 572 360 l 1,6,-1
 692 360 l 1,7,-1
 692 0 l 1,8,-1
 332 0 l 1,9,-1
 332 600 l 1,0,-1
EndSplineSet
Validated: 1
EndChar

StartChar: h
Encoding: 104 104 49
Width: 1024
VWidth: 90
Flags: W
LayerCount: 2
Fore
SplineSet
332 600 m 1,0,-1
 452 600 l 1,1,-1
 452 360 l 1,2,-1
 572 360 l 1,3,-1
 572 600 l 1,4,-1
 692 600 l 1,5,-1
 692 0 l 1,6,-1
 572 0 l 1,7,-1
 572 240 l 1,8,-1
 452 240 l 1,9,-1
 452 0 l 1,10,-1
 332 0 l 1,11,-1
 332 600 l 1,0,-1
EndSplineSet
Validated: 1
EndChar

StartChar: i
Encoding: 105 105 50
Width: 1024
VWidth: 90
Flags: W
LayerCount: 2
Fore
SplineSet
332 600 m 1,0,-1
 692 600 l 1,1,-1
 692 480 l 1,2,-1
 572 480 l 1,3,-1
 572 120 l 1,4,-1
 692 120 l 1,5,-1
 692 0 l 1,6,-1
 332 0 l 1,7,-1
 332 120 l 1,8,-1
 452 120 l 1,9,-1
 452 480 l 1,10,-1
 332 480 l 1,11,-1
 332 600 l 1,0,-1
EndSplineSet
Validated: 1
EndChar

StartChar: j
Encoding: 106 106 51
Width: 1024
VWidth: 90
Flags: W
LayerCount: 2
Fore
SplineSet
332 360 m 1,0,-1
 452 360 l 1,1,-1
 452 120 l 1,2,-1
 572 120 l 1,3,-1
 572 600 l 1,4,-1
 692 600 l 1,5,-1
 692 0 l 1,6,-1
 332 0 l 1,7,-1
 332 360 l 1,0,-1
EndSplineSet
Validated: 1
EndChar

StartChar: k
Encoding: 107 107 52
Width: 1024
VWidth: 90
Flags: W
LayerCount: 2
Fore
SplineSet
332 600 m 1,0,-1
 452 600 l 1,1,-1
 452 480 l 1,2,-1
 572 480 l 1,3,-1
 572 600 l 1,4,-1
 692 600 l 1,5,-1
 692 480 l 1,6,-1
 572 480 l 1,7,-1
 572 240 l 1,8,-1
 692 240 l 1,9,-1
 692 0 l 1,10,-1
 572 0 l 1,11,-1
 572 240 l 1,12,-1
 452 240 l 1,13,-1
 452 0 l 1,14,-1
 332 0 l 1,15,-1
 332 600 l 1,0,-1
EndSplineSet
Validated: 5
EndChar

StartChar: l
Encoding: 108 108 53
Width: 1024
VWidth: 90
Flags: W
LayerCount: 2
Fore
SplineSet
332 600 m 1,0,-1
 452 600 l 5,1,-1
 452 120 l 1,2,-1
 692 120 l 1,3,-1
 692 0 l 1,4,-1
 332 0 l 1,5,-1
 332 600 l 1,0,-1
EndSplineSet
Validated: 1
EndChar

StartChar: m
Encoding: 109 109 54
Width: 1024
VWidth: 90
Flags: W
LayerCount: 2
Fore
SplineSet
332 600 m 1,0,-1
 452 600 l 1,1,-1
 452 480 l 1,2,-1
 572 480 l 1,3,-1
 572 600 l 1,4,-1
 692 600 l 1,5,-1
 692 0 l 1,6,-1
 572 0 l 1,7,-1
 572 360 l 1,8,-1
 452 360 l 1,9,-1
 452 0 l 1,10,-1
 332 0 l 1,11,-1
 332 600 l 1,0,-1
EndSplineSet
Validated: 1
EndChar

StartChar: n
Encoding: 110 110 55
Width: 1024
VWidth: 90
Flags: W
LayerCount: 2
Fore
SplineSet
332 600 m 1,0,-1
 692 600 l 1,1,-1
 692 0 l 1,2,-1
 572 0 l 1,3,-1
 572 480 l 1,4,-1
 452 480 l 1,5,-1
 452 0 l 1,6,-1
 332 0 l 1,7,-1
 332 600 l 1,0,-1
EndSplineSet
Validated: 1
EndChar

StartChar: o
Encoding: 111 111 56
Width: 1024
VWidth: 90
Flags: W
LayerCount: 2
Fore
SplineSet
332 600 m 1,0,-1
 692 600 l 1,1,-1
 692 0 l 1,2,-1
 332 0 l 1,3,-1
 332 600 l 1,0,-1
452 480 m 1,4,-1
 452 120 l 1,5,-1
 572 120 l 1,6,-1
 572 480 l 1,7,-1
 452 480 l 1,4,-1
EndSplineSet
Validated: 1
EndChar

StartChar: p
Encoding: 112 112 57
Width: 1024
VWidth: 90
Flags: W
LayerCount: 2
Fore
SplineSet
332 600 m 1,0,-1
 692 600 l 1,1,-1
 692 240 l 1,2,-1
 452 240 l 1,3,-1
 452 0 l 1,4,-1
 332 0 l 1,5,-1
 332 600 l 1,0,-1
452 480 m 1,6,-1
 452 360 l 1,7,-1
 572 360 l 1,8,-1
 572 480 l 1,9,-1
 452 480 l 1,6,-1
EndSplineSet
Validated: 1
EndChar

StartChar: q
Encoding: 113 113 58
Width: 1024
VWidth: 90
Flags: W
LayerCount: 2
Fore
SplineSet
332 600 m 1,0,-1
 692 600 l 1,1,-1
 692 120 l 1,2,-1
 572 120 l 1,3,-1
 572 0 l 1,4,-1
 452 0 l 1,5,-1
 452 120 l 1,6,-1
 332 120 l 1,7,-1
 332 600 l 1,0,-1
452 480 m 1,8,-1
 452 240 l 1,9,-1
 572 240 l 1,10,-1
 572 480 l 1,11,-1
 452 480 l 1,8,-1
EndSplineSet
Validated: 1
EndChar

StartChar: r
Encoding: 114 114 59
Width: 1024
VWidth: 90
Flags: W
LayerCount: 2
Fore
SplineSet
332 600 m 1,0,-1
 692 600 l 1,1,-1
 692 360 l 1,2,-1
 572 360 l 1,3,-1
 572 480 l 1,4,-1
 452 480 l 1,5,-1
 452 360 l 1,6,-1
 572 360 l 1,7,-1
 572 240 l 1,8,-1
 452 240 l 1,9,-1
 452 0 l 1,10,-1
 332 0 l 1,11,-1
 332 600 l 1,0,-1
572 240 m 1,12,-1
 692 240 l 1,13,-1
 692 0 l 1,14,-1
 572 0 l 1,15,-1
 572 240 l 1,12,-1
EndSplineSet
Validated: 5
EndChar

StartChar: s
Encoding: 115 115 60
Width: 1024
VWidth: 90
Flags: W
LayerCount: 2
Fore
SplineSet
332 600 m 1,0,-1
 692 600 l 1,1,-1
 692 480 l 1,2,-1
 452 480 l 1,3,-1
 452 360 l 1,4,-1
 692 360 l 1,5,-1
 692 0 l 1,6,-1
 332 0 l 1,7,-1
 332 120 l 1,8,-1
 572 120 l 1,9,-1
 572 240 l 1,10,-1
 332 240 l 1,11,-1
 332 600 l 1,0,-1
EndSplineSet
Validated: 1
EndChar

StartChar: t
Encoding: 116 116 61
Width: 1024
VWidth: 90
Flags: W
LayerCount: 2
Fore
SplineSet
332 600 m 1,0,-1
 692 600 l 1,1,-1
 692 480 l 1,2,-1
 572 480 l 1,3,-1
 572 0 l 1,4,-1
 452 0 l 1,5,-1
 452 480 l 1,6,-1
 332 480 l 1,7,-1
 332 600 l 1,0,-1
EndSplineSet
Validated: 1
EndChar

StartChar: u
Encoding: 117 117 62
Width: 1024
VWidth: 90
Flags: W
LayerCount: 2
Fore
SplineSet
332 600 m 1,0,-1
 452 600 l 1,1,-1
 452 120 l 1,2,-1
 572 120 l 1,3,-1
 572 600 l 1,4,-1
 692 600 l 1,5,-1
 692 0 l 1,6,-1
 332 0 l 1,7,-1
 332 600 l 1,0,-1
EndSplineSet
Validated: 1
EndChar

StartChar: v
Encoding: 118 118 63
Width: 1024
VWidth: 90
Flags: W
LayerCount: 2
Fore
SplineSet
332 600 m 1,0,-1
 452 600 l 1,1,-1
 452 240 l 1,2,-1
 572 240 l 1,3,-1
 572 600 l 1,4,-1
 692 600 l 1,5,-1
 692 120 l 1,6,-1
 572 120 l 1,7,-1
 572 0 l 1,8,-1
 452 0 l 1,9,-1
 452 120 l 1,10,-1
 332 120 l 1,11,-1
 332 600 l 1,0,-1
EndSplineSet
Validated: 1
EndChar

StartChar: w
Encoding: 119 119 64
Width: 1024
VWidth: 90
Flags: W
LayerCount: 2
Fore
SplineSet
332 600 m 1,0,-1
 452 600 l 1,1,-1
 452 240 l 1,2,-1
 572 240 l 1,3,-1
 572 600 l 1,4,-1
 692 600 l 1,5,-1
 692 0 l 1,6,-1
 572 0 l 1,7,-1
 572 120 l 1,8,-1
 452 120 l 1,9,-1
 452 0 l 1,10,-1
 332 0 l 1,11,-1
 332 600 l 1,0,-1
EndSplineSet
Validated: 1
EndChar

StartChar: x
Encoding: 120 120 65
Width: 1024
VWidth: 90
Flags: W
LayerCount: 2
Fore
SplineSet
332 600 m 1,0,-1
 452 600 l 1,1,-1
 452 360 l 1,2,-1
 572 360 l 1,3,-1
 572 600 l 1,4,-1
 692 600 l 1,5,-1
 692 360 l 1,6,-1
 572 360 l 1,7,-1
 572 240 l 1,8,-1
 692 240 l 1,9,-1
 692 0 l 1,10,-1
 572 0 l 1,11,-1
 572 240 l 1,12,-1
 452 240 l 1,13,-1
 452 0 l 1,14,-1
 332 0 l 1,15,-1
 332 240 l 1,16,-1
 452 240 l 1,17,-1
 452 360 l 1,18,-1
 332 360 l 1,19,-1
 332 600 l 1,0,-1
EndSplineSet
Validated: 5
EndChar

StartChar: y
Encoding: 121 121 66
Width: 1024
VWidth: 90
Flags: W
LayerCount: 2
Fore
SplineSet
332 600 m 1,0,-1
 452 600 l 1,1,-1
 452 360 l 1,2,-1
 572 360 l 1,3,-1
 572 600 l 1,4,-1
 692 600 l 1,5,-1
 692 240 l 1,6,-1
 572 240 l 1,7,-1
 572 0 l 1,8,-1
 452 0 l 1,9,-1
 452 240 l 1,10,-1
 332 240 l 1,11,-1
 332 600 l 1,0,-1
EndSplineSet
Validated: 1
EndChar

StartChar: z
Encoding: 122 122 67
Width: 1024
VWidth: 90
Flags: W
LayerCount: 2
Fore
SplineSet
332 600 m 1,0,-1
 692 600 l 1,1,-1
 692 351 l 1,2,-1
 572 351 l 1,3,-1
 572 231 l 1,4,-1
 452 231 l 1,5,-1
 452 128 l 1,6,-1
 692 128 l 1,7,-1
 692 0 l 1,8,-1
 332 0 l 1,9,-1
 332 231 l 1,10,-1
 452 231 l 1,11,-1
 452 351 l 1,12,-1
 572 351 l 1,13,-1
 572 471 l 1,14,-1
 332 471 l 1,15,-1
 332 600 l 1,0,-1
EndSplineSet
Validated: 5
EndChar

StartChar: GreaterThan
Encoding: 62 62 68
Width: 1024
VWidth: 90
Flags: W
LayerCount: 2
Fore
SplineSet
452 240 m 5,0,-1
 572 240 l 5,1,-1
 572 360 l 5,2,-1
 452 360 l 5,3,-1
 452 480 l 5,4,-1
 332 480 l 5,5,-1
 332 600 l 5,6,-1
 452 600 l 5,7,-1
 452 480 l 5,8,-1
 572 480 l 5,9,-1
 572 360 l 5,10,-1
 692 360 l 5,11,-1
 692 240 l 5,12,-1
 572 240 l 5,13,-1
 572 120 l 5,14,-1
 452 120 l 5,15,-1
 452 0 l 5,16,-1
 332 0 l 5,17,-1
 332 120 l 5,18,-1
 452 120 l 5,19,-1
 452 240 l 5,0,-1
EndSplineSet
Validated: 5
EndChar

StartChar: LessThan
Encoding: 60 60 69
Width: 1024
VWidth: 90
Flags: W
LayerCount: 2
Fore
SplineSet
572 240 m 5,0,-1
 452 240 l 5,1,-1
 452 360 l 5,2,-1
 572 360 l 5,3,-1
 572 480 l 5,4,-1
 692 480 l 5,5,-1
 692 600 l 5,6,-1
 572 600 l 5,7,-1
 572 480 l 5,8,-1
 452 480 l 5,9,-1
 452 360 l 5,10,-1
 332 360 l 5,11,-1
 332 240 l 5,12,-1
 452 240 l 5,13,-1
 452 120 l 5,14,-1
 572 120 l 5,15,-1
 572 0 l 5,16,-1
 692 0 l 5,17,-1
 692 120 l 5,18,-1
 572 120 l 5,19,-1
 572 240 l 5,0,-1
EndSplineSet
Validated: 5
EndChar

StartChar: Caret
Encoding: 94 94 70
Width: 1024
VWidth: 90
Flags: W
LayerCount: 2
Fore
SplineSet
452 480 m 1,0,-1
 452 600 l 1,1,-1
 572 600 l 1,2,-1
 572 480 l 1,3,-1
 692 480 l 1,4,-1
 692 600 l 1,5,-1
 572 600 l 1,6,-1
 572 720 l 1,7,-1
 452 720 l 1,8,-1
 452 600 l 1,9,-1
 332 600 l 1,10,-1
 332 480 l 1,11,-1
 452 480 l 1,0,-1
EndSplineSet
Validated: 5
EndChar

StartChar: ExclamationPoint
Encoding: 33 33 71
Width: 1024
VWidth: 90
Flags: W
LayerCount: 2
Fore
SplineSet
572 120 m 1,0,-1
 572 0 l 1,1,-1
 452 0 l 1,2,-1
 452 120 l 1,3,-1
 572 120 l 1,0,-1
452 240 m 1,4,-1
 452 720 l 1,5,-1
 572 720 l 1,6,-1
 572 240 l 1,7,-1
 452 240 l 1,4,-1
EndSplineSet
Validated: 1
EndChar

StartChar: PercentSign
Encoding: 37 37 72
Width: 1024
VWidth: 90
Flags: W
LayerCount: 2
Fore
SplineSet
332 600 m 1,0,-1
 452 600 l 1,1,-1
 452 480 l 1,2,-1
 332 480 l 1,3,-1
 332 600 l 1,0,-1
572 120 m 1,4,-1
 692 120 l 1,5,-1
 692 0 l 1,6,-1
 572 0 l 1,7,-1
 572 120 l 1,4,-1
572 480 m 5,8,-1
 692 480 l 1,9,-1
 692 360 l 1,10,-1
 572 360 l 1,11,-1
 572 240 l 1,12,-1
 452 240 l 1,13,-1
 452 120 l 1,14,-1
 332 120 l 1,15,-1
 332 240 l 1,16,-1
 452 240 l 1,17,-1
 452 360 l 1,18,-1
 572 360 l 1,19,-1
 572 480 l 5,20,-1
 572 480 l 5,8,-1
EndSplineSet
Validated: 1029
EndChar

StartChar: parenleft
Encoding: 40 40 73
Width: 1024
VWidth: 90
Flags: W
LayerCount: 2
Fore
SplineSet
512 120 m 5,0,-1
 392 120 l 5,1,-1
 392 600 l 5,2,-1
 512 600 l 5,3,-1
 512 720 l 5,4,-1
 632 720 l 5,5,-1
 632 600 l 5,6,-1
 512 600 l 5,7,-1
 512 120 l 5,8,-1
 632 120 l 5,9,-1
 632 0 l 5,10,-1
 512 0 l 5,11,-1
 512 120 l 5,0,-1
EndSplineSet
Validated: 5
EndChar

StartChar: parenright
Encoding: 41 41 74
Width: 1024
VWidth: 90
Flags: W
LayerCount: 2
Fore
SplineSet
512 120 m 5,0,-1
 632 120 l 5,1,-1
 632 600 l 5,2,-1
 512 600 l 5,3,-1
 512 720 l 5,4,-1
 392 720 l 5,5,-1
 392 600 l 5,6,-1
 512 600 l 5,7,-1
 512 120 l 5,8,-1
 392 120 l 5,9,-1
 392 0 l 5,10,-1
 512 0 l 5,11,-1
 512 120 l 5,0,-1
EndSplineSet
Validated: 5
EndChar

StartChar: period
Encoding: 46 46 75
Width: 1024
VWidth: 90
Flags: W
LayerCount: 2
Fore
SplineSet
452 120 m 5,0,-1
 572 120 l 5,1,-1
 572 0 l 5,2,-1
 452 0 l 5,3,-1
 452 120 l 5,0,-1
EndSplineSet
Validated: 1
EndChar

StartChar: comma
Encoding: 44 44 76
Width: 1024
VWidth: 90
Flags: W
LayerCount: 2
Fore
SplineSet
632 240 m 1,0,-1
 632 120 l 1,1,-1
 512 120 l 1,2,-1
 512 0 l 1,3,-1
 392 0 l 1,4,-1
 392 120 l 1,5,-1
 512 120 l 1,6,-1
 512 240 l 1,7,-1
 632 240 l 1,8,-1
 632 240 l 1,0,-1
EndSplineSet
Validated: 5
EndChar

StartChar: semicolon
Encoding: 59 59 77
Width: 1024
VWidth: 90
Flags: W
LayerCount: 2
Fore
SplineSet
512 480 m 1,0,-1
 632 480 l 1,1,-1
 632 360 l 1,2,-1
 512 360 l 1,3,-1
 512 480 l 1,0,-1
632 240 m 1,4,-1
 632 120 l 1,5,-1
 512 120 l 1,6,-1
 512 0 l 1,7,-1
 392 0 l 1,8,-1
 392 120 l 1,9,-1
 512 120 l 1,10,-1
 512 240 l 5,11,-1
 632 240 l 1,12,-1
 632 240 l 1,4,-1
EndSplineSet
Validated: 5
EndChar

StartChar: underscore
Encoding: 95 95 78
Width: 1024
VWidth: 90
Flags: W
LayerCount: 2
Fore
SplineSet
692 0 m 5,0,-1
 332 0 l 1,1,-1
 332 120 l 1,2,-1
 692 120 l 5,3,-1
 692 0 l 5,0,-1
EndSplineSet
Validated: 1
EndChar

StartChar: equal
Encoding: 61 61 79
Width: 1024
VWidth: 90
Flags: W
LayerCount: 2
Fore
SplineSet
332 480 m 5,0,-1
 692 480 l 5,1,-1
 692 360 l 5,2,-1
 332 360 l 5,3,-1
 332 480 l 5,0,-1
332 240 m 5,4,-1
 692 240 l 5,5,-1
 692 120 l 5,6,-1
 332 120 l 5,7,-1
 332 240 l 5,4,-1
EndSplineSet
Validated: 1
EndChar

StartChar: plus
Encoding: 43 43 80
Width: 1024
VWidth: 90
Flags: W
LayerCount: 2
Fore
SplineSet
0 360 m 1,0,-1
 452 360 l 1,1,-1
 452 820 l 1,2,-1
 572 820 l 1,3,-1
 572 360 l 1,4,-1
 1024 360 l 1,5,-1
 1024 240 l 1,6,-1
 572 240 l 1,7,-1
 572 -204 l 5,8,-1
 452 -204 l 5,9,-1
 452 240 l 1,10,-1
 0 240 l 1,11,-1
 0 360 l 1,0,-1
EndSplineSet
Validated: 1
EndChar

StartChar: backslash
Encoding: 92 92 81
Width: 1024
VWidth: 90
Flags: W
LayerCount: 2
Fore
SplineSet
100 820 m 1,0,-1
 1024 -104 l 1,1,-1
 924 -200 l 1,2,-1
 0 720 l 1,3,-1
 100 820 l 1,0,-1
EndSplineSet
EndChar

StartChar: question
Encoding: 63 63 82
Width: 1024
VWidth: 90
Flags: W
LayerCount: 2
Fore
SplineSet
452 120 m 1,0,-1
 572 120 l 1,1,-1
 572 0 l 1,2,-1
 452 0 l 1,3,-1
 452 120 l 1,0,-1
452 240 m 1,4,-1
 452 360 l 1,5,-1
 572 361 l 1,6,-1
 572 481 l 1,7,-1
 332 480 l 1,8,-1
 332 600 l 1,9,-1
 692 601 l 1,10,-1
 692 241 l 1,11,-1
 452 240 l 1,4,-1
EndSplineSet
Validated: 1
EndChar

StartChar: quotesingle
Encoding: 39 39 83
Width: 1024
VWidth: 90
Flags: W
LayerCount: 2
Fore
SplineSet
572 360 m 5,0,-1
 572 700 l 5,1,-1
 452 700 l 5,2,-1
 452 360 l 5,3,-1
 572 360 l 5,0,-1
EndSplineSet
Validated: 9
EndChar

StartChar: quotedbl
Encoding: 34 34 84
Width: 1024
VWidth: 90
Flags: W
LayerCount: 2
Fore
SplineSet
692 360 m 5,0,-1
 692 700 l 1,1,-1
 572 700 l 1,2,-1
 572 360 l 5,3,-1
 692 360 l 5,0,-1
452 360 m 5,4,-1
 452 700 l 1,5,-1
 332 700 l 1,6,-1
 332 360 l 5,7,-1
 452 360 l 5,4,-1
EndSplineSet
Validated: 9
EndChar

StartChar: asterisk
Encoding: 42 42 85
Width: 1024
VWidth: 90
Flags: W
LayerCount: 2
Fore
SplineSet
332 600 m 1,0,-1
 452 600 l 1,1,-1
 452 480 l 1,2,-1
 572 480 l 1,3,-1
 572 600 l 1,4,-1
 692 600 l 1,5,-1
 692 480 l 1,6,-1
 572 480 l 1,7,-1
 572 360 l 1,8,-1
 692 360 l 1,9,-1
 692 240 l 1,10,-1
 572 240 l 1,11,-1
 572 360 l 1,12,-1
 452 360 l 1,13,-1
 452 240 l 1,14,-1
 332 240 l 1,15,-1
 332 360 l 1,16,-1
 452 360 l 1,17,-1
 452 480 l 1,18,-1
 332 480 l 1,19,-1
 332 600 l 1,0,-1
EndSplineSet
Validated: 5
EndChar

StartChar: ampersand
Encoding: 38 38 86
Width: 1024
VWidth: 90
Flags: W
LayerCount: 2
Fore
SplineSet
332 360 m 1,0,-1
 452 360 l 1,1,-1
 452 480 l 1,2,-1
 572 480 l 1,3,-1
 572 360 l 1,4,-1
 692 360 l 1,5,-1
 692 240 l 1,6,-1
 572 240 l 1,7,-1
 572 120 l 1,8,-1
 452 120 l 1,9,-1
 452 240 l 1,10,-1
 332 240 l 1,11,-1
 332 360 l 1,0,-1
EndSplineSet
Validated: 1
EndChar

StartChar: bar
Encoding: 124 124 87
Width: 1024
VWidth: 90
Flags: W
LayerCount: 2
Fore
SplineSet
572 820 m 1,0,-1
 572 -204 l 1,1,-1
 452 -204 l 1,2,-1
 452 820 l 1,3,-1
 572 820 l 1,0,-1
EndSplineSet
Validated: 1
EndChar

StartChar: bracketleft
Encoding: 91 91 88
Width: 1024
VWidth: 90
Flags: W
LayerCount: 2
Fore
SplineSet
392 0 m 5,0,-1
 392 720 l 1,1,-1
 632 720 l 1,2,-1
 632 600 l 1,3,-1
 512 600 l 1,4,-1
 512 120 l 1,5,-1
 632 120 l 1,6,-1
 632 0 l 5,7,-1
 392 0 l 5,0,-1
EndSplineSet
Validated: 1
EndChar

StartChar: bracketright
Encoding: 93 93 89
Width: 1024
VWidth: 90
Flags: W
LayerCount: 2
Fore
SplineSet
632 0 m 5,0,-1
 632 720 l 5,1,-1
 392 720 l 5,2,-1
 392 600 l 5,3,-1
 512 600 l 5,4,-1
 512 120 l 5,5,-1
 392 120 l 5,6,-1
 392 0 l 5,7,-1
 632 0 l 5,0,-1
EndSplineSet
Validated: 9
EndChar

StartChar: braceleft
Encoding: 123 123 90
Width: 1024
VWidth: 90
Flags: W
LayerCount: 2
Fore
SplineSet
452 0 m 1,0,-1
 452 360 l 1,1,-1
 332 360 l 1,2,-1
 332 480 l 1,3,-1
 452 480 l 1,4,-1
 452 720 l 1,5,-1
 692 720 l 1,6,-1
 692 600 l 1,7,-1
 572 600 l 1,8,-1
 572 120 l 1,9,-1
 692 120 l 1,10,-1
 692 0 l 1,11,-1
 452 0 l 1,0,-1
EndSplineSet
Validated: 1
EndChar

StartChar: braceright
Encoding: 125 125 91
Width: 1024
VWidth: 90
Flags: W
LayerCount: 2
Fore
SplineSet
572 0 m 1,0,-1
 572 360 l 1,1,-1
 692 360 l 1,2,-1
 692 480 l 1,3,-1
 572 480 l 1,4,-1
 572 720 l 1,5,-1
 332 720 l 1,6,-1
 332 600 l 1,7,-1
 452 600 l 1,8,-1
 452 120 l 1,9,-1
 332 120 l 1,10,-1
 332 0 l 1,11,-1
 572 0 l 1,0,-1
EndSplineSet
Validated: 9
EndChar

StartChar: at
Encoding: 64 64 92
Width: 1024
VWidth: 90
Flags: W
LayerCount: 2
Fore
SplineSet
332 600 m 1,0,-1
 332 720 l 1,1,-1
 692 720 l 1,2,-1
 692 0 l 1,3,-1
 332 0 l 1,4,-1
 332 480 l 1,5,-1
 572 480 l 5,6,-1
 572 600 l 1,7,-1
 332 600 l 1,0,-1
452 360 m 1,8,-1
 452 120 l 1,9,-1
 572 120 l 1,10,-1
 572 360 l 1,11,-1
 452 360 l 1,8,-1
EndSplineSet
Validated: 1
EndChar

StartChar: numbersign
Encoding: 35 35 93
Width: 1024
VWidth: 90
Flags: W
LayerCount: 2
Fore
SplineSet
332 65 m 5,0,-1
 452 65 l 5,1,-1
 452 185 l 5,2,-1
 572 185 l 5,3,-1
 572 65 l 5,4,-1
 692 65 l 5,5,-1
 692 785 l 5,6,-1
 572 785 l 5,7,-1
 572 600 l 5,8,-1
 572 480 l 5,9,-1
 572 305 l 5,10,-1
 452 305 l 5,11,-1
 452 480 l 5,12,-1
 452 600 l 5,13,-1
 452 785 l 5,14,-1
 332 785 l 5,15,-1
 332 65 l 5,0,-1
332 785 m 5,16,-1
 452 785 l 5,17,-1
 452 665 l 5,18,-1
 572 665 l 5,19,-1
 572 785 l 5,20,-1
 692 785 l 5,21,-1
 692 65 l 5,22,-1
 572 65 l 5,23,-1
 572 120 l 5,24,-1
 572 240 l 5,25,-1
 572 545 l 5,26,-1
 452 545 l 5,27,-1
 452 240 l 5,28,-1
 452 120 l 5,29,-1
 452 65 l 5,30,-1
 332 65 l 5,31,-1
 332 785 l 5,16,-1
EndSplineSet
Validated: 1029
EndChar

StartChar: missing
Encoding: 128 0 95
Width: 460
VWidth: 90
Flags: W
LayerCount: 2
Fore
SplineSet
410 0 m 1,0,-1
 50 0 l 1,1,-1
 50 720 l 1,2,-1
 410 720 l 1,3,-1
 410 0 l 1,0,-1
EndSplineSet
Validated: 1
EndChar

